<?xml version="1.0" encoding="UTF-8"?>
<svg width="16px" height="13px" viewBox="0 0 16 13" version="1.1" xmlns="http://www.w3.org/2000/svg" xmlns:xlink="http://www.w3.org/1999/xlink">
    <!-- Generator: Sketch 52.2 (67145) - http://www.bohemiancoding.com/sketch -->
    <title>149641</title>
    <desc>Created with Sketch.</desc>
    <g id="Page-1" stroke="none" stroke-width="1" fill="none" fill-rule="evenodd">
        <g id="tickets" transform="translate(-147.000000, -318.000000)" fill="#8F88AB">
            <g id="Group-10" transform="translate(15.000000, 305.000000)">
                <g id="Group-4">
                    <g id="Group-3" transform="translate(132.000000, 11.000000)">
                        <g id="149641" transform="translate(-0.000000, 2.000000)">
                            <g id="Group-5">
                                <path d="M7.8,4.03 C6.07958,4.03 4.68,5.42958 4.68,7.15 C4.68,8.87042 6.07958,10.27 7.8,10.27 C9.52042,10.27 10.92,8.87042 10.92,7.15 C10.92,5.42958 9.52042,4.03 7.8,4.03 Z" id="Path"></path>
                                <path d="M14.35226,2.73 L12.13602,2.73 L11.09602,0.13 L4.50398,0.13 L3.46398,2.73 L3.12,2.73 L3.12,1.43 L1.56,1.43 L1.56,2.73 L1.24774,2.73 C0.55952,2.73 0,3.28952 0,3.97774 L0,11.61342 C0,12.30632 0.56368,12.87 1.25658,12.87 L14.34342,12.87 C15.03632,12.87 15.6,12.30632 15.6,11.61342 L15.6,3.97774 C15.6,3.28952 15.04048,2.73 14.35226,2.73 Z M2.6,2.73 L2.08,2.73 L2.08,1.95 L2.6,1.95 L2.6,2.73 Z M7.8,11.83 C5.2195,11.83 3.12,9.7305 3.12,7.15 C3.12,4.5695 5.2195,2.47 7.8,2.47 C10.3805,2.47 12.48,4.5695 12.48,7.15 C12.48,9.7305 10.3805,11.83 7.8,11.83 Z M13.52,5.85 C12.94644,5.85 12.48,5.38356 12.48,4.81 C12.48,4.23644 12.94644,3.77 13.52,3.77 C14.09356,3.77 14.56,4.23644 14.56,4.81 C14.56,5.38356 14.09356,5.85 13.52,5.85 Z" id="Shape" fill-rule="nonzero"></path>
                            </g>
                        </g>
                    </g>
                </g>
            </g>
        </g>
    </g>
</svg>