<?xml version="1.0" encoding="UTF-8"?>
<svg width="21px" height="15px" viewBox="0 0 21 15" version="1.1" xmlns="http://www.w3.org/2000/svg" xmlns:xlink="http://www.w3.org/1999/xlink">
    <!-- Generator: Sketch 52.2 (67145) - http://www.bohemiancoding.com/sketch -->
    <title>left-arrow</title>
    <desc>Created with Sketch.</desc>
    <g id="Page-1" stroke="none" stroke-width="1" fill="none" fill-rule="evenodd">
        <g id="winner" transform="translate(-14.000000, -34.000000)" fill="#D2CEE3">
            <g id="left-arrow" transform="translate(14.000000, 34.363636)">
                <path d="M7.17372727,0.642090909 C7.45627273,0.359545455 7.90109091,0.359545455 8.18363636,0.642090909 C8.45663636,0.915090909 8.45663636,1.36945455 8.18363636,1.64181818 L3.06281818,6.76263636 L19.9608182,6.76263636 C20.3547273,6.76263636 20.678,7.07572727 20.678,7.46963636 C20.678,7.86354545 20.3547273,8.18681818 19.9608182,8.18681818 L3.06281818,8.18681818 L8.18363636,13.2980909 C8.45663636,13.5806364 8.45663636,14.0356364 8.18363636,14.308 C7.90109091,14.5905455 7.45627273,14.5905455 7.17372727,14.308 L0.840636364,7.97490909 C0.567636364,7.70190909 0.567636364,7.24754545 0.840636364,6.97518182 L7.17372727,0.642090909 Z" id="Path"></path>
            </g>
        </g>
    </g>
</svg>