<?xml version="1.0" encoding="UTF-8"?>
<svg width="132px" height="25px" viewBox="0 0 132 25" version="1.1" xmlns="http://www.w3.org/2000/svg" xmlns:xlink="http://www.w3.org/1999/xlink">
    <!-- Generator: Sketch 52.2 (67145) - http://www.bohemiancoding.com/sketch -->
    <title>Group 20</title>
    <desc>Created with Sketch.</desc>
    <g id="Page-1" stroke="none" stroke-width="1" fill="none" fill-rule="evenodd">
        <g id="Group-20" fill="#D2CEE3">
            <path d="M50.1074219,20.9780273 C50.5042338,20.9780273 50.7026367,21.1464827 50.7026367,21.4833984 C50.7026367,21.6181647 50.6221525,21.7379552 50.4611816,21.8427734 C50.3002108,21.9475917 50.0138367,22 49.6020508,22 L40.4829102,22 L40.4829102,6.10888672 L46.2104492,6.10888672 L46.2104492,21.2587891 L48.3105469,21.2587891 C48.7822289,21.2587891 49.1883935,21.2119959 49.5290527,21.1184082 C49.869712,21.0248205 50.0624998,20.9780273 50.1074219,20.9780273 Z M54.5097656,19.9785156 C53.768551,19.252275 53.1789573,18.3744355 52.7409668,17.3449707 C52.3029763,16.3155059 52.0839844,15.1924703 52.0839844,13.9758301 C52.0839844,12.7591899 52.291746,11.6661019 52.7072754,10.6965332 C53.1228048,9.72696455 53.6974247,8.88655955 54.4311523,8.17529297 C56.0034258,6.66291562 57.9762251,5.90673828 60.3496094,5.90673828 C62.7080196,5.90673828 64.6396409,6.65168526 66.1445312,8.14160156 C67.6718826,9.65397892 68.4355469,11.6155478 68.4355469,14.0263672 C68.4355469,16.4296995 67.6531654,18.4062423 66.0883789,19.9560547 C65.1075797,20.9143928 63.9021881,21.5769838 62.472168,21.9438477 C61.7609014,22.1235361 60.9354702,22.2133789 59.9958496,22.2133789 C59.056229,22.2133789 58.0922901,22.0205911 57.1040039,21.6350098 C56.1157177,21.2494284 55.2509803,20.6972692 54.5097656,19.9785156 Z M60.3383789,6.7265625 C59.926593,6.7265625 59.5410174,6.75651012 59.1816406,6.81640625 L59.1816406,21.3037109 C59.5260434,21.3636071 59.911619,21.3935547 60.3383789,21.3935547 C62.3374123,21.3935547 64.0219658,20.7272202 65.3920898,19.3945312 C66.82211,18.0094332 67.5371094,16.2200631 67.5371094,14.0263672 C67.5371094,11.9374896 66.8670314,10.2005278 65.5268555,8.81542969 C64.1717055,7.4228446 62.4422306,6.7265625 60.3383789,6.7265625 Z M83.1699219,6.40087891 C83.1699219,6.74528167 82.806807,6.91748047 82.0805664,6.91748047 L79.4750977,6.91748047 L79.4750977,22 L73.7250977,22 L73.7250977,6.91748047 L72.0405273,6.91748047 C71.4640271,6.91748047 71.0672211,6.94368463 70.8500977,6.99609375 C70.565591,7.05598988 70.3597012,7.0859375 70.2324219,7.0859375 C69.850584,7.0859375 69.659668,6.93619941 69.659668,6.63671875 C69.659668,6.28482897 70.0302697,6.10888672 70.7714844,6.10888672 L80.7890625,6.10888672 C81.3056666,6.10888672 81.6874988,6.08642601 81.9345703,6.04150391 C82.234051,5.98909479 82.4586581,5.96289062 82.6083984,5.96289062 C82.9827493,5.96289062 83.1699219,6.10888526 83.1699219,6.40087891 Z M97.0844727,6.40087891 C97.0844727,6.74528167 96.7213578,6.91748047 95.9951172,6.91748047 L93.3896484,6.91748047 L93.3896484,22 L87.6396484,22 L87.6396484,6.91748047 L85.9550781,6.91748047 C85.3785778,6.91748047 84.9817719,6.94368463 84.7646484,6.99609375 C84.4801418,7.05598988 84.2742519,7.0859375 84.1469727,7.0859375 C83.7651348,7.0859375 83.5742188,6.93619941 83.5742188,6.63671875 C83.5742188,6.28482897 83.9448205,6.10888672 84.6860352,6.10888672 L94.7036133,6.10888672 C95.2202174,6.10888672 95.6020495,6.08642601 95.8491211,6.04150391 C96.1486018,5.98909479 96.3732089,5.96289062 96.5229492,5.96289062 C96.8973,5.96289062 97.0844727,6.10888526 97.0844727,6.40087891 Z M101.127441,19.9785156 C100.386227,19.252275 99.796633,18.3744355 99.3586426,17.3449707 C98.9206521,16.3155059 98.7016602,15.1924703 98.7016602,13.9758301 C98.7016602,12.7591899 98.9094218,11.6661019 99.3249512,10.6965332 C99.7404806,9.72696455 100.3151,8.88655955 101.048828,8.17529297 C102.621102,6.66291562 104.593901,5.90673828 106.967285,5.90673828 C109.325695,5.90673828 111.257317,6.65168526 112.762207,8.14160156 C114.289558,9.65397892 115.053223,11.6155478 115.053223,14.0263672 C115.053223,16.4296995 114.270841,18.4062423 112.706055,19.9560547 C111.725256,20.9143928 110.519864,21.5769838 109.089844,21.9438477 C108.378577,22.1235361 107.553146,22.2133789 106.613525,22.2133789 C105.673905,22.2133789 104.709966,22.0205911 103.72168,21.6350098 C102.733393,21.2494284 101.868656,20.6972692 101.127441,19.9785156 Z M106.956055,6.7265625 C106.544269,6.7265625 106.158693,6.75651012 105.799316,6.81640625 L105.799316,21.3037109 C106.143719,21.3636071 106.529295,21.3935547 106.956055,21.3935547 C108.955088,21.3935547 110.639642,20.7272202 112.009766,19.3945312 C113.439786,18.0094332 114.154785,16.2200631 114.154785,14.0263672 C114.154785,11.9374896 113.484707,10.2005278 112.144531,8.81542969 C110.789381,7.4228446 109.059906,6.7265625 106.956055,6.7265625 Z M119.264648,20.394043 L119.29834,21.5170898 C119.29834,21.7117523 119.245932,21.8614904 119.141113,21.9663086 C119.036295,22.0711268 118.910889,22.1235352 118.764893,22.1235352 C118.618896,22.1235352 118.497234,22.0748703 118.399902,21.9775391 C118.302571,21.8802078 118.253906,21.7735195 118.253906,21.6574707 C118.253906,21.5414219 118.263265,21.4328618 118.281982,21.3317871 C118.3007,21.2307124 118.317545,21.1165371 118.33252,20.9892578 C118.369955,20.7721343 118.388672,20.2293338 118.388672,19.3608398 L118.388672,5.39013672 L130.596191,15.0708008 L130.596191,8.37744141 C130.596191,7.86832428 130.581218,7.50520942 130.55127,7.28808594 C130.513834,6.93619616 130.495117,6.68912832 130.495117,6.546875 C130.495117,6.17252417 130.656086,5.98535156 130.978027,5.98535156 C131.105307,5.98535156 131.226969,6.03027299 131.343018,6.12011719 C131.459066,6.20996139 131.51709,6.34098221 131.51709,6.51318359 L131.51709,6.90625 L131.472168,8.53466797 L131.472168,22.6176758 L119.264648,13.0380859 L119.264648,20.394043 Z" id="LOTTON"></path>
            <g id="tickets">
                <path d="M27.5333333,16.333275 C27.79105,16.333275 28,16.124325 28,15.8666083 L28,12.133275 C28,11.8755583 27.79105,11.6666083 27.5333333,11.6666083 L21.6598667,11.6666083 L24.5966,8.729875 C24.778775,8.54764167 24.778775,8.25224167 24.5966,8.07000833 L22.0467333,5.52014167 C21.8645,5.33796667 21.5691,5.33796667 21.3868667,5.52014167 C20.6577583,6.24925 19.475575,6.24925 18.7464667,5.52014167 C18.0173583,4.79103333 18.0173583,3.60885 18.7464667,2.87974167 C18.9286417,2.69750833 18.9286417,2.40210833 18.7464667,2.219875 L16.6632667,0.136675 C16.4810333,-0.0455 16.1856333,-0.0455 16.0034,0.136675 L4.47346667,11.6666083 L0.466666667,11.6666083 C0.20895,11.6666083 0,11.8755583 0,12.133275 L0,15.8666083 C0,16.124325 0.20895,16.333275 0.466666667,16.333275 C1.49759167,16.333275 2.33333333,17.1690167 2.33333333,18.1999417 C2.33333333,19.2308667 1.49759167,20.0666083 0.466666667,20.0666083 C0.20895,20.0666083 0,20.2755583 0,20.533275 L0,24.2666083 C0,24.524325 0.20895,24.733275 0.466666667,24.733275 L27.5333333,24.733275 C27.79105,24.733275 28,24.524325 28,24.2666083 L28,20.533275 C28,20.2755583 27.79105,20.0666083 27.5333333,20.0666083 C26.5024083,20.0666083 25.6666667,19.2308667 25.6666667,18.1999417 C25.6666667,17.1690167 26.5024083,16.333275 27.5333333,16.333275 Z M16.3333333,1.126475 L17.7837333,2.576875 C16.8847583,3.835125 17.1760167,5.5839 18.4342667,6.482875 C19.4079083,7.17855833 20.7160917,7.17855833 21.6897333,6.482875 L23.6068,8.39994167 L20.3401333,11.6666083 L18.8598667,11.6666083 L19.9299333,10.5965417 C20.1121083,10.4143083 20.1121083,10.1189083 19.9299333,9.936675 L14.7966,4.80334167 C14.6143667,4.62116667 14.3189667,4.62116667 14.1367333,4.80334167 L7.27346667,11.6666083 L5.7932,11.6666083 L16.3333333,1.126475 Z M17.5401333,11.6666083 L8.5932,11.6666083 L14.4666667,5.79314167 L18.9401333,10.2666083 L17.5401333,11.6666083 Z M24.7695,18.6640417 C24.9673667,19.8410917 25.8896167,20.7633417 27.0666667,20.9612083 L27.0666667,23.7999417 L23.3333333,23.7999417 L23.3333333,21.933275 L22.4,21.933275 L22.4,23.7999417 L5.6,23.7999417 L5.6,23.333275 L4.66666667,23.333275 L4.66666667,23.7999417 L0.933333333,23.7999417 L0.933333333,20.9612083 C2.45834167,20.7048917 3.48681667,19.26085 3.2305,17.7358417 C3.03263333,16.5587917 2.11044167,15.6365417 0.933333333,15.438675 L0.933333333,12.5999417 L4.66666667,12.5999417 L4.66666667,13.9999417 L5.6,13.9999417 L5.6,12.5999417 L27.0666667,12.5999417 L27.0666667,15.438675 C25.5416583,15.6949917 24.5131833,17.1390917 24.7695,18.6640417 Z" id="Shape" fill-rule="nonzero"></path>
                <rect id="Rectangle" x="22.4" y="13.533275" width="1" height="1.86666667"></rect>
                <rect id="Rectangle" x="22.4" y="16.333275" width="1" height="1.86666667"></rect>
                <rect id="Rectangle" x="22.4" y="19.133275" width="1" height="1.86666667"></rect>
                <rect id="Rectangle" x="4.66666667" y="14.933275" width="1" height="1.86666667"></rect>
                <rect id="Rectangle" x="4.66666667" y="17.733275" width="1" height="1.86666667"></rect>
                <rect id="Rectangle" x="4.66666667" y="20.533275" width="1" height="1.86666667"></rect>
                <path d="M20.5333333,14.933275 C20.0178417,14.933275 19.6,14.5154333 19.6,13.9999417 C19.6,13.742225 19.39105,13.533275 19.1333333,13.533275 L8.86666667,13.533275 C8.60895,13.533275 8.4,13.742225 8.4,13.9999417 C8.4,14.5154333 7.98215833,14.933275 7.46666667,14.933275 C7.20895,14.933275 7,15.142225 7,15.3999417 L7,20.9999417 C7,21.2576583 7.20895,21.4666083 7.46666667,21.4666083 C7.98215833,21.4666083 8.4,21.88445 8.4,22.3999417 C8.4,22.6576583 8.60895,22.8666083 8.86666667,22.8666083 L19.1333333,22.8666083 C19.39105,22.8666083 19.6,22.6576583 19.6,22.3999417 C19.6,21.88445 20.0178417,21.4666083 20.5333333,21.4666083 C20.79105,21.4666083 21,21.2576583 21,20.9999417 L21,15.3999417 C21,15.142225 20.79105,14.933275 20.5333333,14.933275 Z M20.0666667,20.592075 C19.4096583,20.763225 18.8966167,21.2762667 18.7254667,21.933275 L9.27453333,21.933275 C9.10338333,21.2762667 8.59034167,20.763225 7.93333333,20.592075 L7.93333333,15.8078083 C8.59034167,15.6366583 9.10338333,15.1236167 9.27453333,14.4666083 L18.7254667,14.4666083 C18.8966167,15.1236167 19.4096583,15.6366583 20.0666667,15.8078083 L20.0666667,20.592075 Z" id="Shape" fill-rule="nonzero"></path>
            </g>
        </g>
    </g>
</svg>