<?xml version="1.0" encoding="UTF-8"?>
<svg width="28px" height="28px" viewBox="0 0 28 28" version="1.1" xmlns="http://www.w3.org/2000/svg" xmlns:xlink="http://www.w3.org/1999/xlink">
    <!-- Generator: Sketch 52.2 (67145) - http://www.bohemiancoding.com/sketch -->
    <title>balloon</title>
    <desc>Created with Sketch.</desc>
    <g id="Page-1" stroke="none" stroke-width="1" fill="none" fill-rule="evenodd">
        <g id="balloon" fill="#D2CEE3">
            <path d="M14.21875,2.25 C13.9598828,2.25 13.75,2.45934406 13.75,2.71754675 C13.75,2.97574945 13.9598828,3.18509351 14.21875,3.18509351 C15.5110938,3.18509351 16.5625,4.46243124 16.5625,6.03245325 C16.5625,6.29065594 16.7723828,6.5 17.03125,6.5 C17.2901172,6.5 17.5,6.29065594 17.5,6.03245325 C17.5,3.94672717 16.028125,2.25 14.21875,2.25 Z" id="Path"></path>
            <path d="M4.73538761,5.59594496 C4.67112413,5.35057159 4.41330023,5.20200793 4.15944468,5.26412414 C2.38636492,5.6987659 1.36667821,7.66358479 1.88505054,9.64443367 C1.94362804,9.89095203 2.19783897,10.0448972 2.45293833,9.98827698 C2.70797846,9.93165676 2.86724528,9.6859399 2.80866779,9.43936429 C2.8070686,9.43255154 2.80529173,9.42579605 2.80333717,9.41904055 C2.41289951,7.92825139 3.12601684,6.46219422 4.39209624,6.15258639 C4.64595179,6.09052743 4.79965109,5.84131832 4.73538761,5.59594496 Z" id="Path"></path>
            <path d="M23.5903327,5.26415473 C23.3365729,5.20190401 23.0788461,5.35078936 23.0146069,5.59669402 C22.9503676,5.84259868 23.104009,6.0923474 23.3577689,6.15459811 C24.623371,6.46487632 25.3352722,7.9341079 24.9445081,9.42812502 C24.8803873,9.67391494 25.0340286,9.92349153 25.2876109,9.9856275 C25.2878477,9.98568487 25.2881437,9.98574224 25.2883805,9.98579962 C25.5418444,10.0481077 25.7994527,9.8995666 25.8638696,9.65394881 C26.3848884,7.66881085 25.3641651,5.6997376 23.5903327,5.26415473 Z" id="Path"></path>
            <path d="M27.3354305,7.22493333 C27.0210624,5.705175 26.0532183,4.40743333 24.6966717,3.68666667 C23.7230166,3.19264167 22.6162844,3.036425 21.5465468,3.24193333 C21.2962721,3.28755 21.1298825,3.53021667 21.1748745,3.78396667 C21.2198664,4.03771667 21.4592096,4.20641667 21.7094843,4.1608 C22.5817637,3.99029167 23.4851693,4.11623333 24.2796621,4.5192 C25.3927807,5.11711667 26.1842242,6.188 26.4374332,7.43913333 C26.7444369,8.857625 26.5468062,10.3405167 25.8795794,11.6256 C25.2484268,12.929875 24.1826591,13.9658167 22.8707592,14.5502 C21.7246159,15.080275 20.4047186,15.063125 19.2723261,14.5035333 C18.7071079,14.2122167 18.2202516,13.7858583 17.8537573,13.2612667 C17.7055486,13.05185 17.4179916,13.0039 17.211443,13.1541667 C17.0048944,13.3044333 16.9576011,13.5959833 17.1058098,13.8054 C17.4796685,14.3341917 17.9534069,14.7824833 18.4995237,15.1242 C18.4935401,15.1330667 18.4838743,15.1377333 18.478351,15.1466 L14.2636092,21.7532 L14.2636092,13.0391333 C17.0938426,12.7591333 19.3266386,9.95213333 19.3266386,6.53333333 C19.3266386,2.93066667 16.8489761,0 13.8033338,0 C10.7576915,0 8.28002904,2.93066667 8.28002904,6.53333333 C8.28002904,9.95213333 10.512825,12.761 13.3430584,13.0391333 L13.3430584,21.7532 L9.1264755,15.1466 C9.10823709,15.1235583 9.08792743,15.1022667 9.06571915,15.0831333 C9.5832413,14.7462583 10.0327578,14.3126667 10.3903917,13.8054 C10.5386004,13.5959833 10.4913071,13.3044333 10.2847585,13.1541667 C10.07821,13.0039 9.7906529,13.05185 9.64244422,13.2612667 C9.27600747,13.785625 8.78932377,14.2118083 8.22433572,14.5030667 C7.09194317,15.0628917 5.77204593,15.0799833 4.62590266,14.5497333 C3.31480819,13.9649417 2.24961585,12.9292917 1.61846321,11.6256 C0.951236484,10.3405167 0.75366327,8.857625 1.06060943,7.43913333 C1.31364583,6.18846667 2.10451403,5.11775833 3.21699966,4.51966667 C4.04261866,4.101125 4.9846298,3.981425 5.88659697,4.1804 C6.13744706,4.22199167 6.37408615,4.0495 6.4151082,3.79510833 C6.45382887,3.55483333 6.30389416,3.32476667 6.07070713,3.26666667 C4.96593111,3.02645 3.81345905,3.17461667 2.80275181,3.68666667 C1.44701062,4.40766667 0.480029545,5.70523333 0.166294327,7.22446667 C-0.19151226,8.85774167 0.0321815833,10.5667333 0.797792173,12.0488667 C1.52750128,13.549025 2.7569544,14.7392 4.26872895,15.4088667 C4.95235298,15.706775 5.6879306,15.8627583 6.43202332,15.8676 C7.07065543,15.8666667 7.70290123,15.7380417 8.29245648,15.4891333 C8.30333048,15.547 8.32484836,15.6022417 8.35597448,15.652 L12.7087989,22.4728 L11.137879,21.6762 C10.1630157,21.1812417 8.97694353,21.5812333 8.48876393,22.5696333 C8.00058434,23.5580333 8.39509789,24.760575 9.36996118,25.2555333 C9.92631907,25.5380417 10.5815211,25.5380417 11.137879,25.2555333 L12.2885675,24.6712667 C11.7748426,25.535125 11.5029349,26.524575 11.5019568,27.5333333 C11.5019568,27.79105 11.7080451,28 11.9622322,28 C12.2164193,28 12.4225076,27.79105 12.4225076,27.5333333 C12.4230254,26.4392917 12.8064924,25.3808917 13.5046151,24.5466667 L13.8033338,24.1882667 L14.1020526,24.5457333 C14.8003479,25.38025 15.1838148,26.4389417 15.18416,27.5333333 C15.18416,27.79105 15.3902483,28 15.6444354,28 C15.8986225,28 16.1047108,27.79105 16.1047108,27.5333333 C16.1035026,26.5250417 15.8315949,25.5361167 15.3181002,24.6726667 L16.4687886,25.2569333 C17.4436519,25.7513083 18.6292638,25.35085 19.1168681,24.36245 C19.6044723,23.37405 19.2094985,22.171975 18.2346352,21.6776 C17.6788527,21.3957333 17.0245712,21.3957333 16.4687886,21.6776 L14.8978687,22.4742 L19.2506932,15.6534 C19.2721535,15.61525 19.2876303,15.5740667 19.2967207,15.5311333 C19.8600402,15.7542 20.4594339,15.8687667 21.0641782,15.869 C21.8082709,15.8641583 22.5438486,15.708175 23.2274726,15.4102667 C24.7393047,14.7404833 25.9688729,13.5503667 26.6988696,12.0502667 C27.4658611,10.5683083 27.6913385,8.85914167 27.3354305,7.22493333 Z M10.7240914,24.4220667 C10.2039802,24.686025 9.57133167,24.472525 9.3109884,23.9451917 C9.05064513,23.4178583 9.26122112,22.776425 9.78133232,22.5124667 C10.0780373,22.3619083 10.4273864,22.3619083 10.7240914,22.5124667 L12.6066178,23.4672667 L10.7240914,24.4220667 Z M13.8033338,12.1333333 C11.2653753,12.1333333 9.20057984,9.62126667 9.20057984,6.53333333 C9.20057984,3.4454 11.2653753,0.933333333 13.8033338,0.933333333 C16.3412924,0.933333333 18.4060878,3.4454 18.4060878,6.53333333 C18.4060878,9.62126667 16.3412924,12.1333333 13.8033338,12.1333333 Z M16.8816557,22.5124667 C17.4017669,22.2485083 18.0344154,22.4620083 18.2947587,22.9893417 C18.555102,23.516675 18.344526,24.1581083 17.8244148,24.4220667 C17.5277097,24.572625 17.1783607,24.572625 16.8816557,24.4220667 L15.0000499,23.4672667 L16.8816557,22.5124667 Z" id="Shape" fill-rule="nonzero"></path>
        </g>
    </g>
</svg>