<?xml version="1.0" encoding="UTF-8"?>
<svg width="28px" height="25px" viewBox="0 0 28 25" version="1.1" xmlns="http://www.w3.org/2000/svg" xmlns:xlink="http://www.w3.org/1999/xlink">
    <!-- Generator: Sketch 52.2 (67145) - http://www.bohemiancoding.com/sketch -->
    <title>Group 20</title>
    <desc>Created with Sketch.</desc>
    <g id="Page-1" stroke="none" stroke-width="1" fill="none" fill-rule="evenodd">
        <g id="Group-20" fill="#D2CEE3">
            <g id="tickets">
                <path d="M27.5333333,16.333275 C27.79105,16.333275 28,16.124325 28,15.8666083 L28,12.133275 C28,11.8755583 27.79105,11.6666083 27.5333333,11.6666083 L21.6598667,11.6666083 L24.5966,8.729875 C24.778775,8.54764167 24.778775,8.25224167 24.5966,8.07000833 L22.0467333,5.52014167 C21.8645,5.33796667 21.5691,5.33796667 21.3868667,5.52014167 C20.6577583,6.24925 19.475575,6.24925 18.7464667,5.52014167 C18.0173583,4.79103333 18.0173583,3.60885 18.7464667,2.87974167 C18.9286417,2.69750833 18.9286417,2.40210833 18.7464667,2.219875 L16.6632667,0.136675 C16.4810333,-0.0455 16.1856333,-0.0455 16.0034,0.136675 L4.47346667,11.6666083 L0.466666667,11.6666083 C0.20895,11.6666083 0,11.8755583 0,12.133275 L0,15.8666083 C0,16.124325 0.20895,16.333275 0.466666667,16.333275 C1.49759167,16.333275 2.33333333,17.1690167 2.33333333,18.1999417 C2.33333333,19.2308667 1.49759167,20.0666083 0.466666667,20.0666083 C0.20895,20.0666083 0,20.2755583 0,20.533275 L0,24.2666083 C0,24.524325 0.20895,24.733275 0.466666667,24.733275 L27.5333333,24.733275 C27.79105,24.733275 28,24.524325 28,24.2666083 L28,20.533275 C28,20.2755583 27.79105,20.0666083 27.5333333,20.0666083 C26.5024083,20.0666083 25.6666667,19.2308667 25.6666667,18.1999417 C25.6666667,17.1690167 26.5024083,16.333275 27.5333333,16.333275 Z M16.3333333,1.126475 L17.7837333,2.576875 C16.8847583,3.835125 17.1760167,5.5839 18.4342667,6.482875 C19.4079083,7.17855833 20.7160917,7.17855833 21.6897333,6.482875 L23.6068,8.39994167 L20.3401333,11.6666083 L18.8598667,11.6666083 L19.9299333,10.5965417 C20.1121083,10.4143083 20.1121083,10.1189083 19.9299333,9.936675 L14.7966,4.80334167 C14.6143667,4.62116667 14.3189667,4.62116667 14.1367333,4.80334167 L7.27346667,11.6666083 L5.7932,11.6666083 L16.3333333,1.126475 Z M17.5401333,11.6666083 L8.5932,11.6666083 L14.4666667,5.79314167 L18.9401333,10.2666083 L17.5401333,11.6666083 Z M24.7695,18.6640417 C24.9673667,19.8410917 25.8896167,20.7633417 27.0666667,20.9612083 L27.0666667,23.7999417 L23.3333333,23.7999417 L23.3333333,21.933275 L22.4,21.933275 L22.4,23.7999417 L5.6,23.7999417 L5.6,23.333275 L4.66666667,23.333275 L4.66666667,23.7999417 L0.933333333,23.7999417 L0.933333333,20.9612083 C2.45834167,20.7048917 3.48681667,19.26085 3.2305,17.7358417 C3.03263333,16.5587917 2.11044167,15.6365417 0.933333333,15.438675 L0.933333333,12.5999417 L4.66666667,12.5999417 L4.66666667,13.9999417 L5.6,13.9999417 L5.6,12.5999417 L27.0666667,12.5999417 L27.0666667,15.438675 C25.5416583,15.6949917 24.5131833,17.1390917 24.7695,18.6640417 Z" id="Shape" fill-rule="nonzero"></path>
                <rect id="Rectangle" x="22.4" y="13.533275" width="1" height="1.86666667"></rect>
                <rect id="Rectangle" x="22.4" y="16.333275" width="1" height="1.86666667"></rect>
                <rect id="Rectangle" x="22.4" y="19.133275" width="1" height="1.86666667"></rect>
                <rect id="Rectangle" x="4.66666667" y="14.933275" width="1" height="1.86666667"></rect>
                <rect id="Rectangle" x="4.66666667" y="17.733275" width="1" height="1.86666667"></rect>
                <rect id="Rectangle" x="4.66666667" y="20.533275" width="1" height="1.86666667"></rect>
                <path d="M20.5333333,14.933275 C20.0178417,14.933275 19.6,14.5154333 19.6,13.9999417 C19.6,13.742225 19.39105,13.533275 19.1333333,13.533275 L8.86666667,13.533275 C8.60895,13.533275 8.4,13.742225 8.4,13.9999417 C8.4,14.5154333 7.98215833,14.933275 7.46666667,14.933275 C7.20895,14.933275 7,15.142225 7,15.3999417 L7,20.9999417 C7,21.2576583 7.20895,21.4666083 7.46666667,21.4666083 C7.98215833,21.4666083 8.4,21.88445 8.4,22.3999417 C8.4,22.6576583 8.60895,22.8666083 8.86666667,22.8666083 L19.1333333,22.8666083 C19.39105,22.8666083 19.6,22.6576583 19.6,22.3999417 C19.6,21.88445 20.0178417,21.4666083 20.5333333,21.4666083 C20.79105,21.4666083 21,21.2576583 21,20.9999417 L21,15.3999417 C21,15.142225 20.79105,14.933275 20.5333333,14.933275 Z M20.0666667,20.592075 C19.4096583,20.763225 18.8966167,21.2762667 18.7254667,21.933275 L9.27453333,21.933275 C9.10338333,21.2762667 8.59034167,20.763225 7.93333333,20.592075 L7.93333333,15.8078083 C8.59034167,15.6366583 9.10338333,15.1236167 9.27453333,14.4666083 L18.7254667,14.4666083 C18.8966167,15.1236167 19.4096583,15.6366583 20.0666667,15.8078083 L20.0666667,20.592075 Z" id="Shape" fill-rule="nonzero"></path>
            </g>
        </g>
    </g>
</svg>